<mxfile host="app.diagrams.net" agent="Mozilla/5.0 (Windows NT 10.0; Win64; x64) AppleWebKit/537.36 (KHTML, like Gecko) Chrome/131.0.0.0 Safari/537.36 Edg/131.0.0.0" version="25.0.1">
  <diagram name="หน้า-1" id="J8_ORc4yfgxihrGuoto6">
    <mxGraphModel dx="1960" dy="2104" grid="1" gridSize="10" guides="1" tooltips="1" connect="1" arrows="1" fold="1" page="1" pageScale="1" pageWidth="827" pageHeight="1169" math="0" shadow="0">
      <root>
        <mxCell id="0" />
        <mxCell id="1" parent="0" />
        <mxCell id="ZkRSOblNSpW13J7s8laq-1" value="" style="edgeStyle=orthogonalEdgeStyle;rounded=0;orthogonalLoop=1;jettySize=auto;html=1;" edge="1" parent="1" source="ZkRSOblNSpW13J7s8laq-24" target="ZkRSOblNSpW13J7s8laq-4">
          <mxGeometry relative="1" as="geometry" />
        </mxCell>
        <mxCell id="ZkRSOblNSpW13J7s8laq-2" value="Start" style="ellipse;whiteSpace=wrap;html=1;" vertex="1" parent="1">
          <mxGeometry x="353" y="-70" width="120" height="80" as="geometry" />
        </mxCell>
        <mxCell id="ZkRSOblNSpW13J7s8laq-4" value="รับข้อมูลเลขUser&amp;nbsp;" style="shape=parallelogram;perimeter=parallelogramPerimeter;whiteSpace=wrap;html=1;fixedSize=1;" vertex="1" parent="1">
          <mxGeometry x="318" y="170" width="190" height="60" as="geometry" />
        </mxCell>
        <mxCell id="ZkRSOblNSpW13J7s8laq-5" value="" style="edgeStyle=orthogonalEdgeStyle;rounded=0;orthogonalLoop=1;jettySize=auto;html=1;" edge="1" parent="1" target="ZkRSOblNSpW13J7s8laq-13">
          <mxGeometry relative="1" as="geometry">
            <mxPoint x="413" y="230" as="sourcePoint" />
          </mxGeometry>
        </mxCell>
        <mxCell id="ZkRSOblNSpW13J7s8laq-8" style="edgeStyle=orthogonalEdgeStyle;rounded=0;orthogonalLoop=1;jettySize=auto;html=1;" edge="1" parent="1" source="ZkRSOblNSpW13J7s8laq-9" target="ZkRSOblNSpW13J7s8laq-20">
          <mxGeometry relative="1" as="geometry" />
        </mxCell>
        <mxCell id="ZkRSOblNSpW13J7s8laq-23" value="" style="edgeStyle=orthogonalEdgeStyle;rounded=0;orthogonalLoop=1;jettySize=auto;html=1;" edge="1" parent="1" source="ZkRSOblNSpW13J7s8laq-9" target="ZkRSOblNSpW13J7s8laq-21">
          <mxGeometry relative="1" as="geometry" />
        </mxCell>
        <mxCell id="ZkRSOblNSpW13J7s8laq-9" value="Loop i ถึง&amp;nbsp;&lt;div&gt;ค่าที่ผู้ใช้กรอกมา&lt;/div&gt;" style="rhombus;whiteSpace=wrap;html=1;" vertex="1" parent="1">
          <mxGeometry x="339.5" y="350" width="147" height="80" as="geometry" />
        </mxCell>
        <mxCell id="ZkRSOblNSpW13J7s8laq-10" value="Y" style="text;html=1;align=center;verticalAlign=middle;whiteSpace=wrap;rounded=0;" vertex="1" parent="1">
          <mxGeometry x="365.5" y="430" width="60" height="30" as="geometry" />
        </mxCell>
        <mxCell id="ZkRSOblNSpW13J7s8laq-11" value="N" style="text;html=1;align=center;verticalAlign=middle;whiteSpace=wrap;rounded=0;" vertex="1" parent="1">
          <mxGeometry x="458" y="350" width="60" height="30" as="geometry" />
        </mxCell>
        <mxCell id="ZkRSOblNSpW13J7s8laq-12" value="" style="edgeStyle=orthogonalEdgeStyle;rounded=0;orthogonalLoop=1;jettySize=auto;html=1;" edge="1" parent="1" source="ZkRSOblNSpW13J7s8laq-13" target="ZkRSOblNSpW13J7s8laq-9">
          <mxGeometry relative="1" as="geometry" />
        </mxCell>
        <mxCell id="ZkRSOblNSpW13J7s8laq-13" value="" style="ellipse;whiteSpace=wrap;html=1;aspect=fixed;" vertex="1" parent="1">
          <mxGeometry x="400.5" y="280" width="25" height="25" as="geometry" />
        </mxCell>
        <mxCell id="ZkRSOblNSpW13J7s8laq-14" value="" style="edgeStyle=orthogonalEdgeStyle;rounded=0;orthogonalLoop=1;jettySize=auto;html=1;" edge="1" parent="1" source="ZkRSOblNSpW13J7s8laq-15" target="ZkRSOblNSpW13J7s8laq-19">
          <mxGeometry relative="1" as="geometry" />
        </mxCell>
        <mxCell id="ZkRSOblNSpW13J7s8laq-15" value="i น้อยกว่า&amp;nbsp;&amp;nbsp;&lt;div&gt;ค่าที่ผู้ใช้กรอกมา&lt;/div&gt;&lt;div&gt;ไหม&lt;/div&gt;" style="rhombus;whiteSpace=wrap;html=1;" vertex="1" parent="1">
          <mxGeometry x="539.5" y="460" width="147" height="80" as="geometry" />
        </mxCell>
        <mxCell id="ZkRSOblNSpW13J7s8laq-16" value="Y" style="text;html=1;align=center;verticalAlign=middle;whiteSpace=wrap;rounded=0;" vertex="1" parent="1">
          <mxGeometry x="508" y="460" width="60" height="30" as="geometry" />
        </mxCell>
        <mxCell id="ZkRSOblNSpW13J7s8laq-17" value="N" style="text;html=1;align=center;verticalAlign=middle;whiteSpace=wrap;rounded=0;" vertex="1" parent="1">
          <mxGeometry x="658" y="460" width="60" height="30" as="geometry" />
        </mxCell>
        <mxCell id="ZkRSOblNSpW13J7s8laq-18" style="edgeStyle=orthogonalEdgeStyle;rounded=0;orthogonalLoop=1;jettySize=auto;html=1;entryX=1;entryY=0.5;entryDx=0;entryDy=0;" edge="1" parent="1" source="ZkRSOblNSpW13J7s8laq-28" target="ZkRSOblNSpW13J7s8laq-13">
          <mxGeometry relative="1" as="geometry">
            <Array as="points" />
          </mxGeometry>
        </mxCell>
        <mxCell id="ZkRSOblNSpW13J7s8laq-19" value="แสดง +" style="shape=parallelogram;perimeter=parallelogramPerimeter;whiteSpace=wrap;html=1;fixedSize=1;" vertex="1" parent="1">
          <mxGeometry x="518" y="580" width="190" height="60" as="geometry" />
        </mxCell>
        <mxCell id="ZkRSOblNSpW13J7s8laq-20" value="End" style="ellipse;whiteSpace=wrap;html=1;" vertex="1" parent="1">
          <mxGeometry x="353" y="560" width="120" height="80" as="geometry" />
        </mxCell>
        <mxCell id="ZkRSOblNSpW13J7s8laq-22" value="" style="edgeStyle=orthogonalEdgeStyle;rounded=0;orthogonalLoop=1;jettySize=auto;html=1;" edge="1" parent="1" source="ZkRSOblNSpW13J7s8laq-21" target="ZkRSOblNSpW13J7s8laq-15">
          <mxGeometry relative="1" as="geometry" />
        </mxCell>
        <mxCell id="ZkRSOblNSpW13J7s8laq-21" value="แสดง ค่า fix&amp;nbsp;" style="rounded=0;whiteSpace=wrap;html=1;" vertex="1" parent="1">
          <mxGeometry x="553" y="360" width="120" height="60" as="geometry" />
        </mxCell>
        <mxCell id="ZkRSOblNSpW13J7s8laq-25" value="" style="edgeStyle=orthogonalEdgeStyle;rounded=0;orthogonalLoop=1;jettySize=auto;html=1;" edge="1" parent="1" source="ZkRSOblNSpW13J7s8laq-2" target="ZkRSOblNSpW13J7s8laq-24">
          <mxGeometry relative="1" as="geometry">
            <mxPoint x="413" y="10" as="sourcePoint" />
            <mxPoint x="413" y="170" as="targetPoint" />
          </mxGeometry>
        </mxCell>
        <mxCell id="ZkRSOblNSpW13J7s8laq-24" value="ค่า fix = 9&amp;nbsp;" style="rounded=0;whiteSpace=wrap;html=1;" vertex="1" parent="1">
          <mxGeometry x="353" y="50" width="120" height="60" as="geometry" />
        </mxCell>
        <mxCell id="ZkRSOblNSpW13J7s8laq-27" value="" style="edgeStyle=orthogonalEdgeStyle;rounded=0;orthogonalLoop=1;jettySize=auto;html=1;entryX=1;entryY=0.5;entryDx=0;entryDy=0;" edge="1" parent="1" source="ZkRSOblNSpW13J7s8laq-19" target="ZkRSOblNSpW13J7s8laq-26">
          <mxGeometry relative="1" as="geometry">
            <Array as="points">
              <mxPoint x="790" y="610" />
              <mxPoint x="790" y="293" />
            </Array>
            <mxPoint x="698" y="610" as="sourcePoint" />
            <mxPoint x="425" y="293" as="targetPoint" />
          </mxGeometry>
        </mxCell>
        <mxCell id="ZkRSOblNSpW13J7s8laq-26" value="Sum += fix&amp;nbsp;" style="rounded=0;whiteSpace=wrap;html=1;" vertex="1" parent="1">
          <mxGeometry x="640" y="262.5" width="120" height="60" as="geometry" />
        </mxCell>
        <mxCell id="ZkRSOblNSpW13J7s8laq-29" value="" style="edgeStyle=orthogonalEdgeStyle;rounded=0;orthogonalLoop=1;jettySize=auto;html=1;entryX=1;entryY=0.5;entryDx=0;entryDy=0;" edge="1" parent="1" source="ZkRSOblNSpW13J7s8laq-26" target="ZkRSOblNSpW13J7s8laq-28">
          <mxGeometry relative="1" as="geometry">
            <Array as="points" />
            <mxPoint x="640" y="293" as="sourcePoint" />
            <mxPoint x="425" y="293" as="targetPoint" />
          </mxGeometry>
        </mxCell>
        <mxCell id="ZkRSOblNSpW13J7s8laq-28" value="fix = fix x 10 + 9&amp;nbsp;" style="rounded=0;whiteSpace=wrap;html=1;" vertex="1" parent="1">
          <mxGeometry x="486.5" y="262.5" width="120" height="60" as="geometry" />
        </mxCell>
      </root>
    </mxGraphModel>
  </diagram>
</mxfile>
